<svg width="20" height="20" viewBox="0 0 20 20" fill="none" xmlns="http://www.w3.org/2000/svg">
<path d="M17.4306 10.975C17.4706 10.655 17.5006 10.33 17.5006 10C17.5006 9.67 17.4706 9.345 17.4306 9.025L19.5456 7.37C19.7356 7.22 19.7906 6.95 19.6656 6.73L17.6656 3.265C17.5406 3.05 17.2806 2.96 17.0556 3.05L14.5656 4.055C14.0506 3.66 13.4856 3.325 12.8756 3.07L12.5006 0.42C12.4556 0.185 12.2506 0 12.0006 0H8.00056C7.75056 0 7.54556 0.185 7.50556 0.42L7.13056 3.07C6.52056 3.325 5.95556 3.655 5.44056 4.055L2.95056 3.05C2.72556 2.965 2.46556 3.05 2.34056 3.265L0.34056 6.73C0.21556 6.945 0.27056 7.215 0.46056 7.37L2.57056 9.025C2.53056 9.345 2.50056 9.67 2.50056 10C2.50056 10.33 2.53056 10.655 2.57056 10.975L0.46056 12.63C0.27056 12.78 0.21556 13.05 0.34056 13.27L2.34056 16.735C2.46556 16.95 2.72556 17.04 2.95056 16.95L5.44056 15.945C5.95556 16.34 6.52056 16.675 7.13056 16.93L7.50556 19.58C7.54556 19.815 7.75056 20 8.00056 20H12.0006C12.2506 20 12.4556 19.815 12.4956 19.58L12.8706 16.93C13.4806 16.675 14.0456 16.345 14.5606 15.945L17.0506 16.95C17.2756 17.035 17.5356 16.95 17.6606 16.735L19.6606 13.27C19.7856 13.055 19.7306 12.785 19.5406 12.63L17.4306 10.975ZM10.0006 13.5C8.06556 13.5 6.50056 11.935 6.50056 10C6.50056 8.065 8.06556 6.5 10.0006 6.5C11.9356 6.5 13.5006 8.065 13.5006 10C13.5006 11.935 11.9356 13.5 10.0006 13.5Z" fill="white"/>
</svg>
